<svg viewBox="0 0 400 300" fill="none" xmlns="http://www.w3.org/2000/svg"><path d="M280.12 125.35c-9.23 9.84-17 8.06-17 8.06l-2.12 9.27c11 3.87 14.4 12.43 14.4 12.43l4.72-29.76Z" fill="#fff" stroke="#0C296E" stroke-width=".8" stroke-miterlimit="10"/><path d="M159.43 103.19c-1.2-.11-40.9-4-53.2-19.26-2-2.43-4.06.92-4.56 4.37-4.89 13.29 21.76 23.85 54.33 29.7 1.66-7.46 3.43-14.81 3.43-14.81Z" fill="#3370FF"/><path d="M110.8 66.57a47.86 47.86 0 0 1 25.47-4.43s.25 6.19.25 12.54c-28.14 1.69-34.17 10.85-35.22 18.79l-.1-14.64c.07-4.63 4.48-9.76 9.6-12.26Z" fill="#fff" stroke="#0C296E" stroke-width=".8" stroke-linecap="round" stroke-linejoin="round"/><path d="M41.48 256.08s13.71-15.5 33.52-14.86c22.82.74 27-2.67 33.77-8.65 6.77-5.98 22.64-22.11 49.71-9.18 8.86 4.24 21 8.26 40.35-.93 25.29-12 100.83-51.12 152.4 33.53l-309.75.09Z" fill="#F0F1F2"/><path d="M228.26 193.85s24.92 1.9 36.83 4.68c12.5 2.92 22.19 4.76 24.62 28.46 1.8 17.55 9.83 25.09 67 29.26-15.48.18-33.37-.25-50.45-.25-6.32 0-18.65-1.07-19.23-16.17-.93-24.08-10.39-29.65-58.56-31.24-.21-7.79-.21-14.74-.21-14.74Z" fill="#3370FF"/><path d="M142.37 189.79H41.48v65.88h100.89v-65.88Z" fill="#fff" stroke="#0C296E" stroke-width=".8" stroke-linecap="round" stroke-linejoin="round"/><path d="M142.37 189.79h-24.38v65.88h24.38v-65.88Z" fill="#E0E2E4" stroke="#0C296E" stroke-width=".8" stroke-linecap="round" stroke-linejoin="round"/><path d="m261.73 139.34-1.42 5.46a2.93 2.93 0 0 1-1.91 2.07 4.772 4.772 0 0 1-4.71-.78c-1.93 1-4 1.42-5.54-.55" fill="#fff"/><path d="m261.73 139.34-1.42 5.46a2.93 2.93 0 0 1-1.91 2.07 4.772 4.772 0 0 1-4.71-.78c-1.93 1-4 1.42-5.54-.55" stroke="#0C296E" stroke-width=".8" stroke-miterlimit="10"/><path d="m209.29 88.41-1.44 14-2.71 31.23-64-6.59-.36.26c.15-1.77 1.86-22 4.05-40.44 1.71-14.24 11.79-18.72 17.8-18.35l6.44.34 26.51 2.71a15.332 15.332 0 0 1 13.71 16.84Z" fill="#fff"/><path d="M166.72 68.77c-6-.37-16.1 4.11-17.8 18.35-2.2 18.44-3.9 38.67-4.05 40.44l-3.79-.37 4.32-42.32a18.188 18.188 0 0 1 19.95-16.24l1.37.14ZM205 91.3c-1.65 18.49-3.81 40.08-4 41.85l3.78.43 4.24-44.65c.75-7.14-2.9-13.67-9.95-16.09-.07-.01 7.24 3.16 5.93 18.46Z" fill="#33CC99"/><path d="m209.29 88.41-1.44 14-2.71 31.23-64-6.59-.36.26c.15-1.77 1.86-22 4.05-40.44 1.71-14.24 11.79-18.72 17.8-18.35l6.44.34 26.51 2.71a15.332 15.332 0 0 1 13.71 16.84Z" stroke="#0C296E" stroke-width=".8" stroke-miterlimit="10"/><path d="M183.47 70.4c9.289 0 16.82-7.53 16.82-16.82s-7.531-16.82-16.82-16.82c-9.29 0-16.82 7.53-16.82 16.82s7.53 16.82 16.82 16.82Z" fill="#fff"/><path d="M183.47 70.4c9.289 0 16.82-7.53 16.82-16.82s-7.531-16.82-16.82-16.82c-9.29 0-16.82 7.53-16.82 16.82s7.53 16.82 16.82 16.82Z" stroke="#0C296E" stroke-width=".8" stroke-miterlimit="10"/><path d="M183.47 66.4c8.632 0 15.63-4.978 15.63-11.12 0-6.141-6.998-11.12-15.63-11.12-8.632 0-15.63 4.979-15.63 11.12 0 6.142 6.998 11.12 15.63 11.12Z" fill="#fff" stroke="#0C296E" stroke-width=".8" stroke-linecap="round" stroke-linejoin="round"/><path d="M183.43 44.84c8.14 0 14.83 4.42 15.61 10.07a9.63 9.63 0 0 0 .08-1.2c0-6.74-7-13.12-15.68-13.12s-15.7 6.41-15.7 13.12c.002.401.028.802.08 1.2.77-5.65 7.46-10.07 15.61-10.07Z" fill="#33CC99"/><path d="M167 60.08a2.369 2.369 0 0 1-2.37-2.37V53a2.368 2.368 0 0 1 2.37-2.35 2.37 2.37 0 0 1 2.35 2.35v4.69a2.358 2.358 0 0 1-.68 1.682 2.365 2.365 0 0 1-1.67.708ZM202.17 53.02a2.368 2.368 0 0 0-2.365-2.37 2.368 2.368 0 0 0-2.365 2.37v4.69a2.368 2.368 0 0 0 2.365 2.37 2.368 2.368 0 0 0 2.365-2.37v-4.69Z" fill="#fff" stroke="#0C296E" stroke-width=".8" stroke-linecap="round" stroke-linejoin="round"/><path d="M179.6 57.27a1.18 1.18 0 1 0 0-2.36 1.18 1.18 0 0 0 0 2.36ZM187.03 57.27a1.18 1.18 0 1 0 0-2.36 1.18 1.18 0 0 0 0 2.36Z" fill="#0C296E"/><path d="m172.52 112.35-1.34 16.36-5.21-.53 1.59-20.91 1.64 1.79a46.835 46.835 0 0 0 3.32 3.29Z" fill="#33CC99"/><path d="M169.1 68.89c1.57.35 4.2 1.42 7 4.62 1.7 1.93 5.18 6.55 8.42 10.95 3.74 5.07 7.16 9.85 7.16 9.85l1.89 1 14.29 7.19 19.29 9.7.07.37c1.72 8.59-4 17.39-10.89 20.85l-11.15-4.57-18.72-7.68a48.189 48.189 0 0 1-13.93-8.76 45.444 45.444 0 0 1-3.31-3.29l-1.64-1.79-10.65-11.69" fill="#fff"/><path d="M169.1 68.89c1.57.35 4.2 1.42 7 4.62 1.7 1.93 5.18 6.55 8.42 10.95 3.74 5.07 7.16 9.85 7.16 9.85l1.89 1 14.29 7.19 19.29 9.7.07.37c1.72 8.59-4 17.39-10.89 20.85l-11.15-4.57-18.72-7.68a48.189 48.189 0 0 1-13.93-8.76 45.444 45.444 0 0 1-3.31-3.29l-1.64-1.79-10.65-11.69" stroke="#0C296E" stroke-width=".8" stroke-miterlimit="10"/><path d="M220.14 108.25c.31-2.21 2.55-5.55 5.09-5.55l-3-2s-3.49 0-5.3 5.89l3.21 1.66ZM199.58 98.6c-.09 5.37-3.5 15.63-14.52 21.28l-5.42-2.61c14.55-8 14.29-21.39 14.29-21.39" fill="#33CC99"/><path d="M181.14 248.09v6.37a33.134 33.134 0 0 1-13 3.44 46.476 46.476 0 0 1-24.67-5.81l-18.71-10.47v-5.85L147.29 247a40.575 40.575 0 0 0 20.7 4.34 36.652 36.652 0 0 0 13.15-3.25Z" fill="#0C296E"/><path d="M128.61 220.32a45.563 45.563 0 0 0-3.46 15.43l22.21 11.1a39.992 39.992 0 0 0 20.44 4.29 36.18 36.18 0 0 0 13-3.22c0-2.62.59-8.59-4.63-13.06l-7.62-4.68v-2.13l-39.94-7.73Z" fill="#fff" stroke="#0C296E" stroke-width=".8" stroke-linecap="round" stroke-linejoin="round"/><path d="M146.33 246.35c.79-13 22.42-17.2 30.87-10.49" stroke="#0C296E" stroke-width=".8" stroke-linecap="round" stroke-linejoin="round"/><path d="M204 140.3s24 14.44 32.93 20.09a23.34 23.34 0 0 1 5.47 4.83 24.76 24.76 0 0 1 5.53 15.29l.91 43.25h-41.12V186l-22.32-10.54c2 7.89.7 13.12-3 22.08-4.54 10.93-10.57 25.2-13.36 30.59a63.15 63.15 0 0 1-41.04-7.81l17-37.73s-7.47-16.85-8.93-23.2c-3.53-15.36 4.45-25.58 4.45-25.58L204 140.3Z" fill="#0C296E"/><path d="m209.36 85.35 13.2 15.65 21.28 15.76 10.34 3.52a4.866 4.866 0 0 1 2.06 1.36l5.24 5.86a6.995 6.995 0 0 1 1.78 4.67v7s-7.11 1.71-8.06-4.94c-2.43-1-4.47-.24-7-1.93" fill="#fff"/><path d="m209.36 85.35 13.2 15.65 21.28 15.76 10.34 3.52a4.866 4.866 0 0 1 2.06 1.36l5.24 5.86a6.995 6.995 0 0 1 1.78 4.67v7s-7.11 1.71-8.06-4.94c-2.43-1-4.47-.24-7-1.93" stroke="#0C296E" stroke-width=".8" stroke-linecap="round" stroke-linejoin="round"/><path d="M236.15 118.21c2.16-2.8 3.64-3.48 5.31-3.66.59.19.84-.48.9-.65-2-1.23-2.39-1.53-4.39-2.72a8.99 8.99 0 0 0-6.24 4.64l4.42 2.39Z" fill="#33CC99"/><path d="M208.07 249.42h44.15v-20.57h-3.94v-6.01h-40.21v26.58Z" fill="#fff" stroke="#0C296E" stroke-width=".8" stroke-linecap="round" stroke-linejoin="round"/><path d="M252.35 250.22s14.05 3.68 14.05-4.15-.65-17.22-14.18-17.22c0 5.2.13 21.37.13 21.37Z" fill="#fff" stroke="#0C296E" stroke-width=".8" stroke-linecap="round" stroke-linejoin="round"/><path d="M207.81 253.95h58.73v-8.33h-58.73v8.33Z" fill="#0C296E"/><path d="M216.72 134.92s3.85 5.65 6 8.77c3.77 5.67 7.3 2.54 7.12 0 2.22 5.29 8.58 3.25 7.68.34.77 2.9 6.19 3.48 6.31.73 2.75 2.95 6.47.25 6.24-1.56-.44-3.3-2.13-10-2.94-13.92-1.32-6.39-5.84-7.92-9.23-9.91l-10.2-6-10.98 21.55Z" fill="#fff" stroke="#0C296E" stroke-width=".8" stroke-miterlimit="10"/><path d="m243.87 144.76-5.1-14.3M237.68 144.27l-5.05-10.95M229.88 143.69l-3.75-7.87" stroke="#0C296E" stroke-width=".8" stroke-miterlimit="10"/><path d="M210.29 132.3c.05-.17.3-.83.88-.64 4.78-.56 12.28-12 11.42-22.27-.59-.15-.41-1.26 0-1.21 3.49 1.62 4.54 2.24 6.28 3.11 1.53 6.08-2.2 19.26-12.26 24.51-1.97-1.16-3.56-2.01-6.32-3.5Z" fill="#33CC99"/><path d="M255.84 136.69s-.25 5.83-2 9.34l2-9.34Z" fill="#fff"/><path d="M255.84 136.69s-.25 5.83-2 9.34" stroke="#0C296E" stroke-width=".8" stroke-miterlimit="10"/><path d="M249.32 138.63s.88-3.43 1.22-5.27l-1.22 5.27Z" fill="#fff"/><path d="M249.32 138.63s.88-3.43 1.22-5.27" stroke="#0C296E" stroke-width=".8" stroke-miterlimit="10"/><path d="m171.198 79.51-9.697 8.925 5.282 5.74 9.697-8.927-5.282-5.739Z" fill="#33CC99"/><path d="m194.34 85.78-.77 9.48-1.89-1s-3.42-4.78-7.16-9.85l9.82 1.37Z" fill="#33CC99" stroke="#0C296E" stroke-width=".8" stroke-linecap="round" stroke-linejoin="round"/><path d="m165.97 128.18-.1 1.29M171.18 128.71l-.1 1.26" stroke="#0C296E" stroke-width=".8" stroke-linecap="round" stroke-linejoin="round"/><path d="M360.081 151.506c2.892-21.389-12.87-41.176-35.205-44.195-22.336-3.02-42.787 11.871-45.679 33.259-2.891 21.389 12.871 41.176 35.206 44.196 22.336 3.02 42.787-11.871 45.678-33.26Z" fill="#0C296E"/><path d="M353.999 151.079c2.806-21.368-13.008-41.065-35.322-43.995-22.313-2.93-42.676 12.017-45.482 33.384-2.806 21.367 13.008 41.064 35.322 43.995 22.313 2.93 42.676-12.017 45.482-33.384Z" fill="#fff" stroke="#0C296E" stroke-width=".799" stroke-miterlimit="10"/><path d="M346.668 150.328c2.265-16.753-10.079-32.251-27.57-34.616-17.492-2.365-33.508 9.299-35.774 26.052-2.265 16.753 10.079 32.251 27.571 34.616 17.492 2.365 33.508-9.299 35.773-26.052Z" fill="#33CC99"/><path d="M154.95 135.54s-3 2.25-1.28 17.33L148.2 159l8.15 20.65a17.813 17.813 0 0 1 .58 11.42c-2.06 6.44-13.14 28.91-13.14 28.91" stroke="#fff" stroke-width=".8" stroke-linecap="round" stroke-linejoin="round"/><path d="M131.12 213.32s10.26 11.42 40.91 8.46" stroke="#fff" stroke-width=".8" stroke-linecap="round" stroke-linejoin="round"/><path d="M120.16 158v15h-9.1v16.76h-18.2V173h-36.6v-12.5l29.1-47.3h25.7V158h9.1Z" fill="#0C296E"/><path d="M102.49 158v-44.8h-25.7l-29.1 47.3V173h36.6v16.76h18.2V173h9.1v-15h-9.1Zm-18.2 0h-17.8l17.6-29h.2v29Z" fill="#33CC99"/><path d="m48.84 80.63 17.62-13.54 4.66 23.18-22.28-9.64Z" fill="#E3E4E5"/><path d="M313.84 79.55a6.65 6.65 0 1 0 0-13.3 6.65 6.65 0 0 0 0 13.3Z" fill="#FFC60A"/><path d="m205.31 132.16-.82 8.09-64.36-6.5.82-8.1 25.02 2.53 5.21.53 34.13 3.45Z" fill="#33CC99" stroke="#0C296E" stroke-width=".8" stroke-linecap="round" stroke-linejoin="round"/><path d="M248.79 215.64h-41.07v8.14h41.07v-8.14Z" fill="#0C296E"/><path d="m185.4 175.46-5.8-15.33M207.72 215.64h41.08" stroke="#fff" stroke-width=".8" stroke-linecap="round" stroke-linejoin="round"/><path d="M199.1 201.54c21.882 0 39.62-17.739 39.62-39.62 0-21.882-17.738-39.62-39.62-39.62-21.882 0-39.62 17.738-39.62 39.62 0 21.881 17.738 39.62 39.62 39.62Z" fill="#FFC60A"/><path d="M185.47 177.95a8.8 8.8 0 1 0 0-17.6 8.8 8.8 0 0 0 0 17.6Z" fill="#0C296E"/><path d="m170.65 134.7 17.67 15.54M192.72 123.41l29.85 25.44M161.71 149l43.39 37.82M210.76 177l15.44 13.37M184.07 186.37l17.21 14.71M206.04 151.24l29.72 25.75" stroke="#0C296E" stroke-width=".8" stroke-miterlimit="10"/><path d="M230.54 56.94a6.16 6.16 0 1 0 0-12.32 6.16 6.16 0 0 0 0 12.32ZM274.25 44.36h-24.89a5.83 5.83 0 1 0 0 11.66h24.89a5.83 5.83 0 1 0 0-11.66Z" fill="#F0F1F2"/><path d="M278.88 97.12s.43 6.32-9.55 7.14c-.24-3.23.11-19 .11-19l6.73 1.06 2.71 10.8Z" fill="#3370FF"/><path d="M251.84 69.44c12.56.28 19.48 2.7 23.24 6.12a11.467 11.467 0 0 1 3.66 8.29c.08 4.59-.05 9.19.17 13.78-1.84-8.52-9.39-13.54-27.13-14.09.13-5.32-.01-8.72.06-14.1Z" fill="#33CC99"/></svg>